<svg width="1182" height="395" viewBox="0 0 1182 395" fill="none" xmlns="http://www.w3.org/2000/svg">
<path d="M366.597 9.04578V385.954H239.041V66.8384H273.692L91.3981 267.354V228.658H420.833V321.629H0V231.17L203.386 9.04578H366.597Z" fill="white"/>
<path d="M593.793 395C549.936 395 511.435 386.792 478.29 370.375C445.481 353.959 419.869 331.009 401.456 301.527C383.377 271.709 374.338 237.034 374.338 197.5C374.338 157.966 383.377 123.458 401.456 93.9758C419.869 64.1582 445.481 41.0411 478.29 24.6247C511.435 8.20822 549.936 0 593.793 0C637.651 0 675.985 8.20822 708.794 24.6247C741.939 41.0411 767.55 64.1582 785.629 93.9758C804.042 123.458 813.249 157.966 813.249 197.5C813.249 237.034 804.042 271.709 785.629 301.527C767.55 331.009 741.939 353.959 708.794 370.375C675.985 386.792 637.651 395 593.793 395ZM594.296 290.471C622.753 290.471 644.849 282.43 660.584 266.349C676.654 249.932 684.689 226.983 684.689 197.5C684.689 167.682 676.654 144.733 660.584 128.651C644.849 112.57 622.585 104.529 593.793 104.529C565.336 104.529 543.072 112.57 527.002 128.651C510.932 144.733 502.897 167.515 502.897 196.997C502.897 226.815 510.932 249.932 527.002 266.349C543.072 282.43 565.503 290.471 594.296 290.471Z" fill="white"/>
<path d="M1127.76 9.04578V385.954H1000.21V66.8384H1034.86L852.565 267.354V228.658H1182V321.629H761.167V231.17L964.553 9.04578H1127.76Z" fill="white"/>
</svg>
