<svg width="201" height="26" viewBox="0 0 201 26" fill="none" xmlns="http://www.w3.org/2000/svg">
<g clip-path="url(#clip0_501_6633)">
<path d="M9.72172 0.748413C16.9577 0.748413 18.1404 5.15606 18.1404 7.3981C18.1986 8.45613 17.9451 9.50796 17.4115 10.4229C16.878 11.3379 16.0878 12.0757 15.1392 12.5446C17.3393 13.1051 18.878 15.3153 18.878 18.0796C18.878 21.9331 16.7098 25.258 9.54368 25.258H0.00585938V0.748413H9.72172ZM5.94474 10.1306H10.3957C12.1443 10.1306 12.5322 8.90765 12.5322 8.21975C12.5322 7.53185 12.1825 6.30892 10.3957 6.30892H5.94474V10.1306ZM5.94474 19.621H10.8027C12.7102 19.621 13.2825 18.4299 13.2825 17.4172C13.2825 16.4045 12.6466 15.2452 10.8027 15.2452H5.94474V19.621Z" fill="white"/>
<path d="M95.7972 25.258H89.0508L97.3678 12.4045L89.6676 0.748413H96.4267L100.757 7.1879L104.947 0.748413H111.694L104.006 12.6529L112.272 25.258H105.551L100.623 17.8694L95.7972 25.258Z" fill="white"/>
<path d="M201 13.0032C201 15.4709 200.27 17.8833 198.902 19.9356C197.534 21.9879 195.589 23.588 193.314 24.5339C191.038 25.4797 188.534 25.7288 186.117 25.2496C183.701 24.7705 181.48 23.5847 179.736 21.8419C177.992 20.0992 176.802 17.8777 176.318 15.4581C175.833 13.0386 176.075 10.5295 177.014 8.24774C177.952 5.96602 179.545 4.01408 181.59 2.63849C183.635 1.2629 186.042 0.525379 188.505 0.519084C190.144 0.514895 191.769 0.834713 193.284 1.46022C194.8 2.08573 196.178 3.00463 197.338 4.1643C198.499 5.32397 199.42 6.70163 200.048 8.21835C200.676 9.73506 201 11.361 201 13.0032ZM182.019 13.0032C182.019 17.2388 184.887 19.863 188.524 19.863C192.161 19.863 195.061 17.2388 195.061 13.0032C195.061 8.76749 192.193 6.10507 188.505 6.10507C184.817 6.10507 182.019 8.79934 182.019 13.0032Z" fill="white"/>
<path d="M76.5 10.1178H86.6292L88.1616 12.4108L86.3049 15.2324H76.5V10.1178Z" fill="white"/>
<path d="M135.393 0.748413H118.988L115.383 6.34714H126.708L114.436 25.2643H121.182L124.762 19.7548C124.762 19.7548 127.604 25.2643 130.058 25.2643H135.425C135.425 25.2643 137.091 25.2643 137.091 22.7166V3.27071C137.059 0.748417 135.393 0.748413 135.393 0.748413ZM131.114 10.1624V19.6274H124.813L131.114 9.90765V10.1624Z" fill="white"/>
<path d="M149.209 19.6274V3.18153C149.164 0.748408 147.543 0.748413 147.543 0.748413H143.264V22.7357C143.264 25.2834 144.93 25.2834 144.93 25.2834H155.65C155.847 25.2834 157.24 25.1879 158.06 23.2643L159.414 19.6465L149.209 19.6274Z" fill="white"/>
<path d="M41.9792 6.3471V3.27067C41.9792 0.7229 40.3133 0.7229 40.3133 0.7229H21.5938L25.2372 6.32162V22.7102C25.2372 25.2579 26.9031 25.2579 26.9031 25.2579H39.8364L41.9538 19.621H31.1824V15.2325H39.2578V12.621C39.2578 10.0732 37.5919 10.0732 37.5919 10.0732H31.1824V6.30252L41.9792 6.3471Z" fill="white"/>
<path d="M53.7748 19.6274V2.63373C53.5205 0.754747 52.1534 0.7229 52.1534 0.7229H47.8359V22.7102C47.8359 25.2579 49.5019 25.2579 49.5019 25.2579H61.0236L64.6734 19.621L53.7748 19.6274Z" fill="white"/>
<path d="M176.857 0.748413H163.116H159.059L155.441 6.34714H163.04V23.0287C163.161 25.2707 164.699 25.2771 164.699 25.2771H168.985V6.34714H173.245L176.857 0.748413Z" fill="white"/>
<path d="M76.5 15.2325C78.5094 12.6139 81.391 10.8056 84.6199 10.137H76.5V15.2325Z" fill="white"/>
<path d="M88.1621 12.4108C88.1621 12.4108 84.7411 12.1178 81.0723 15.2324H86.3244L88.1621 12.4108Z" fill="white"/>
<path d="M82.0054 0.748413H64.6211L68.2709 6.34714V22.8121C68.2344 23.1523 68.2655 23.4963 68.3627 23.8243C68.4598 24.1523 68.621 24.4578 68.8368 24.7229L74.2161 19.6656V6.34714H85.6615L82.0054 0.748413Z" fill="white"/>
<path d="M81.644 19.6274L75.8323 25.2644H69.9379C69.7226 25.2583 69.5115 25.2028 69.3208 25.1024C69.1301 25.0019 68.9649 24.8591 68.8379 24.6848L74.2172 19.6274H81.644Z" fill="white"/>
<path d="M85.0513 19.621L81.4015 25.2579H75.6406L81.0136 19.621H85.0513Z" fill="white"/>
<path d="M95.2578 15.6719C99.1677 17.2438 103.342 18.0503 107.555 18.0478L104.014 12.6528L106.392 8.97132C101.801 11.9586 100.192 7.62737 95.2578 9.20698L97.3688 12.3917L95.2578 15.6719Z" fill="white"/>
<path d="M125.021 8.90129C132.308 8.4618 133.999 0.748424 133.999 0.748424H135.271C135.271 0.748424 136.886 0.691104 137.02 2.95225V11.8694C136.227 13.942 134.673 15.6327 132.677 16.5956C132.158 16.8024 131.627 16.9789 131.087 17.1242V9.90129L126.922 16.3217C126.922 16.3217 121.759 19.8886 118.357 19.1306L125.021 8.90129Z" fill="white"/>
<path d="M112.298 25.258H105.551L100.623 17.8695L95.7972 25.258H89.0508L95.2567 15.672C95.2567 15.672 101.927 13.4491 107.554 18.0478L112.298 25.258Z" fill="white"/>
<path d="M118.383 19.1306C122.134 19.7675 126.948 16.3217 126.948 16.3217L124.811 19.6274H131.113V15.6338C135.907 13.5064 137.058 10.3854 137.058 10.3854V22.43C137.058 22.43 137.312 25.0414 135.392 25.2644H129.784C128.951 25.1115 127.914 24.3344 126.795 22.9523C126.016 21.9522 125.325 20.8867 124.729 19.7675L121.149 25.2771H114.402L118.383 19.1306Z" fill="white"/>
</g>
<defs>
<clipPath id="clip0_501_6633">
<rect width="201" height="25" fill="white" transform="translate(0 0.5)"/>
</clipPath>
</defs>
</svg>
