<svg width="201" height="26" viewBox="0 0 201 26" fill="none" xmlns="http://www.w3.org/2000/svg">
<g clip-path="url(#clip0_501_8592)">
<path d="M9.72172 0.748291C16.9577 0.748291 18.1404 5.15594 18.1404 7.39797C18.1986 8.45601 17.9451 9.50784 17.4115 10.4228C16.878 11.3378 16.0878 12.0755 15.1392 12.5445C17.3393 13.105 18.878 15.3152 18.878 18.0795C18.878 21.933 16.7098 25.2578 9.54368 25.2578H0.00585938V0.748291H9.72172ZM5.94474 10.1305H10.3957C12.1443 10.1305 12.5322 8.90752 12.5322 8.21963C12.5322 7.53173 12.1825 6.3088 10.3957 6.3088H5.94474V10.1305ZM5.94474 19.6209H10.8027C12.7102 19.6209 13.2825 18.4298 13.2825 17.4171C13.2825 16.4043 12.6466 15.2451 10.8027 15.2451H5.94474V19.6209Z" fill="#058240"/>
<path d="M95.7972 25.2578H89.0508L97.3678 12.4043L89.6676 0.748291H96.4267L100.757 7.18778L104.947 0.748291H111.694L104.006 12.6528L112.272 25.2578H105.551L100.623 17.8693L95.7972 25.2578Z" fill="#058240"/>
<path d="M201 13.0032C201 15.4709 200.27 17.8833 198.902 19.9356C197.534 21.9879 195.589 23.588 193.314 24.5339C191.038 25.4797 188.534 25.7288 186.117 25.2496C183.701 24.7705 181.48 23.5847 179.736 21.8419C177.992 20.0992 176.802 17.8777 176.318 15.4581C175.833 13.0386 176.075 10.5295 177.014 8.24774C177.952 5.96602 179.545 4.01408 181.59 2.63849C183.635 1.2629 186.042 0.525379 188.505 0.519084C190.144 0.514895 191.769 0.834713 193.284 1.46022C194.8 2.08573 196.178 3.00463 197.338 4.1643C198.499 5.32397 199.42 6.70163 200.048 8.21835C200.676 9.73506 201 11.361 201 13.0032ZM182.019 13.0032C182.019 17.2388 184.887 19.863 188.524 19.863C192.161 19.863 195.061 17.2388 195.061 13.0032C195.061 8.76749 192.193 6.10507 188.505 6.10507C184.817 6.10507 182.019 8.79934 182.019 13.0032Z" fill="#058240"/>
<path d="M76.5 10.1179H86.6292L88.1616 12.4109L86.3049 15.2326H76.5V10.1179Z" fill="#FEE3A2"/>
<path d="M135.393 0.748291H118.988L115.383 6.34701H126.708L114.436 25.2642H121.182L124.762 19.7547C124.762 19.7547 127.604 25.2642 130.058 25.2642H135.425C135.425 25.2642 137.091 25.2642 137.091 22.7164V3.27059C137.059 0.748295 135.393 0.748291 135.393 0.748291ZM131.114 10.1623V19.6273H124.813L131.114 9.90753V10.1623Z" fill="#058240"/>
<path d="M149.209 19.6273V3.18141C149.164 0.748286 147.543 0.748291 147.543 0.748291H143.264V22.7356C143.264 25.2833 144.93 25.2833 144.93 25.2833H155.65C155.847 25.2833 157.24 25.1878 158.06 23.2642L159.414 19.6464L149.209 19.6273Z" fill="#058240"/>
<path d="M41.9792 6.3471V3.27067C41.9792 0.7229 40.3133 0.7229 40.3133 0.7229H21.5938L25.2372 6.32162V22.7102C25.2372 25.2579 26.9031 25.2579 26.9031 25.2579H39.8364L41.9538 19.621H31.1824V15.2325H39.2578V12.621C39.2578 10.0732 37.5919 10.0732 37.5919 10.0732H31.1824V6.30252L41.9792 6.3471Z" fill="#058240"/>
<path d="M53.7748 19.6274V2.63373C53.5205 0.754747 52.1534 0.7229 52.1534 0.7229H47.8359V22.7102C47.8359 25.2579 49.5019 25.2579 49.5019 25.2579H61.0236L64.6734 19.621L53.7748 19.6274Z" fill="#058240"/>
<path d="M176.857 0.748291H163.116H159.059L155.441 6.34701H163.04V23.0285C163.161 25.2706 164.699 25.277 164.699 25.277H168.985V6.34701H173.245L176.857 0.748291Z" fill="#058240"/>
<path d="M76.5 15.2325C78.5094 12.6139 81.391 10.8056 84.6199 10.137H76.5V15.2325Z" fill="#E9B80C"/>
<path d="M88.1621 12.4109C88.1621 12.4109 84.7411 12.1179 81.0723 15.2326H86.3244L88.1621 12.4109Z" fill="#FFF1D0"/>
<path d="M82.0054 0.748291H64.6211L68.2709 6.34701V22.812C68.2344 23.1522 68.2655 23.4962 68.3627 23.8242C68.4598 24.1522 68.621 24.4576 68.8368 24.7228L74.2161 19.6655V6.34701H85.6615L82.0054 0.748291Z" fill="#058240"/>
<path d="M81.644 19.6274L75.8323 25.2644H69.9379C69.7226 25.2583 69.5115 25.2028 69.3208 25.1024C69.1301 25.0019 68.9649 24.8591 68.8379 24.6848L74.2172 19.6274H81.644Z" fill="#87C159"/>
<path d="M85.0513 19.6211L81.4015 25.258H75.6406L81.0136 19.6211H85.0513Z" fill="#ADCACB"/>
<path d="M95.2578 15.6719C99.1677 17.2438 103.342 18.0503 107.555 18.0478L104.014 12.6528L106.392 8.97132C101.801 11.9586 100.192 7.62737 95.2578 9.20698L97.3688 12.3917L95.2578 15.6719Z" fill="#87C159"/>
<path d="M125.021 8.90129C132.308 8.4618 133.999 0.748424 133.999 0.748424H135.271C135.271 0.748424 136.886 0.691104 137.02 2.95225V11.8694C136.227 13.942 134.673 15.6327 132.677 16.5956C132.158 16.8024 131.627 16.9789 131.087 17.1242V9.90129L126.922 16.3217C126.922 16.3217 121.759 19.8886 118.357 19.1306L125.021 8.90129Z" fill="#87C159"/>
<path d="M112.298 25.2579H105.551L100.623 17.8693L95.7972 25.2579H89.0508L95.2567 15.6719C95.2567 15.6719 101.927 13.4489 107.554 18.0477L112.298 25.2579Z" fill="#ADCACB"/>
<path d="M118.383 19.1305C122.134 19.7674 126.948 16.3216 126.948 16.3216L124.811 19.6273H131.113V15.6337C135.907 13.5063 137.058 10.3853 137.058 10.3853V22.4298C137.058 22.4298 137.312 25.0413 135.392 25.2642H129.784C128.951 25.1114 127.914 24.3343 126.795 22.9521C126.016 21.9521 125.325 20.8866 124.729 19.7674L121.149 25.277H114.402L118.383 19.1305Z" fill="#ADCACB"/>
</g>
<defs>
<clipPath id="clip0_501_8592">
<rect width="201" height="25" fill="white" transform="translate(0 0.5)"/>
</clipPath>
</defs>
</svg>
